<svg xmlns="http://www.w3.org/2000/svg" width="1000" height="1500" viewBox="0 0 1000 1500" role="img" aria-labelledby="title desc">
  <title id="title">Last Z Research Order Pinterest Pin</title>
  <desc id="desc">A vertical Pinterest pin for the Last Z research guide.</desc>
  <defs>
    <linearGradient id="bg" x1="0" y1="0" x2="1" y2="1">
      <stop offset="0" stop-color="#12213a"/>
      <stop offset="0.55" stop-color="#1f5f6f"/>
      <stop offset="1" stop-color="#f0b44b"/>
    </linearGradient>
    <filter id="shadow" x="-20%" y="-20%" width="140%" height="140%">
      <feDropShadow dx="0" dy="18" stdDeviation="20" flood-color="#061121" flood-opacity="0.28"/>
    </filter>
  </defs>
  <rect width="1000" height="1500" fill="url(#bg)"/>
  <path d="M0 1130 C190 1015 360 1210 560 1095 C735 995 830 1060 1000 975 L1000 1500 L0 1500 Z" fill="#f7f2e8" opacity="0.96"/>
  <circle cx="860" cy="150" r="98" fill="#f7f2e8" opacity="0.16"/>
  <circle cx="120" cy="1290" r="140" fill="#1f5f6f" opacity="0.14"/>
  <g transform="translate(76 86)">
    <rect x="0" y="0" width="260" height="54" rx="27" fill="#f7f2e8" opacity="0.94"/>
    <text x="28" y="36" font-family="Arial, Helvetica, sans-serif" font-size="25" font-weight="700" fill="#14233b">LAST Z GUIDES</text>
  </g>
  <g transform="translate(76 214)">
    <text x="0" y="0" font-family="Arial, Helvetica, sans-serif" font-size="74" font-weight="800" fill="#ffffff">Last Z</text>
    <text x="0" y="88" font-family="Arial, Helvetica, sans-serif" font-size="74" font-weight="800" fill="#ffffff">Research Order</text>
    <text x="0" y="166" font-family="Arial, Helvetica, sans-serif" font-size="38" font-weight="700" fill="#ffe7bd">Best priority path for most accounts</text>
  </g>
  <g filter="url(#shadow)" transform="translate(76 506)">
    <rect width="848" height="492" rx="34" fill="#ffffff"/>
    <text x="48" y="80" font-family="Arial, Helvetica, sans-serif" font-size="34" font-weight="800" fill="#14233b">Fast route</text>
    <g font-family="Arial, Helvetica, sans-serif" font-size="34" fill="#1d2c43">
      <text x="52" y="154"><tspan font-weight="800" fill="#c26b18">1.</tspan> Hero Training to Cockpit</text>
      <text x="52" y="232"><tspan font-weight="800" fill="#c26b18">2.</tspan> Military Strategies</text>
      <text x="52" y="310"><tspan font-weight="800" fill="#c26b18">3.</tspan> Peace Shield / Urgent Rescue</text>
      <text x="52" y="388"><tspan font-weight="800" fill="#c26b18">4.</tspan> Choose UST/T10 or late combat</text>
    </g>
  </g>
  <g transform="translate(76 1112)">
    <rect width="848" height="164" rx="30" fill="#14233b"/>
    <text x="46" y="64" font-family="Arial, Helvetica, sans-serif" font-size="31" font-weight="800" fill="#ffffff">Full guide, branches, and stop points</text>
    <text x="46" y="118" font-family="Arial, Helvetica, sans-serif" font-size="31" font-weight="700" fill="#f7c15d">lastzguides.com/research.html</text>
  </g>
  <text x="76" y="1390" font-family="Arial, Helvetica, sans-serif" font-size="28" font-weight="700" fill="#14233b">Independent Last Z: Survival Shooter guide</text>
</svg>
